<mxfile host="app.diagrams.net" modified="2024-03-30T16:23:47.848Z" agent="Mozilla/5.0 (Windows NT 10.0; Win64; x64; rv:124.0) Gecko/20100101 Firefox/124.0" etag="db1AkqI5SCuoQLNZT3w1" version="24.2.1" type="device">
  <diagram id="C5RBs43oDa-KdzZeNtuy" name="Page-1">
    <mxGraphModel dx="1050" dy="626" grid="1" gridSize="10" guides="1" tooltips="1" connect="1" arrows="1" fold="1" page="1" pageScale="1" pageWidth="827" pageHeight="1169" math="0" shadow="0">
      <root>
        <mxCell id="WIyWlLk6GJQsqaUBKTNV-0" />
        <mxCell id="WIyWlLk6GJQsqaUBKTNV-1" parent="WIyWlLk6GJQsqaUBKTNV-0" />
        <mxCell id="JdHnlZ5F1qFr3cky5IYm-3" value="" style="edgeStyle=orthogonalEdgeStyle;rounded=0;orthogonalLoop=1;jettySize=auto;html=1;" edge="1" parent="WIyWlLk6GJQsqaUBKTNV-1" source="JdHnlZ5F1qFr3cky5IYm-1" target="JdHnlZ5F1qFr3cky5IYm-2">
          <mxGeometry relative="1" as="geometry" />
        </mxCell>
        <mxCell id="JdHnlZ5F1qFr3cky5IYm-1" value="init" style="rounded=1;whiteSpace=wrap;html=1;fontSize=12;glass=0;strokeWidth=1;shadow=0;" vertex="1" parent="WIyWlLk6GJQsqaUBKTNV-1">
          <mxGeometry x="200" y="10" width="120" height="40" as="geometry" />
        </mxCell>
        <mxCell id="JdHnlZ5F1qFr3cky5IYm-2" value="start file watcher" style="rounded=1;whiteSpace=wrap;html=1;fontSize=12;glass=0;strokeWidth=1;shadow=0;" vertex="1" parent="WIyWlLk6GJQsqaUBKTNV-1">
          <mxGeometry x="200" y="130" width="120" height="40" as="geometry" />
        </mxCell>
        <mxCell id="JdHnlZ5F1qFr3cky5IYm-7" value="" style="edgeStyle=orthogonalEdgeStyle;rounded=0;orthogonalLoop=1;jettySize=auto;html=1;" edge="1" parent="WIyWlLk6GJQsqaUBKTNV-1" target="JdHnlZ5F1qFr3cky5IYm-6">
          <mxGeometry relative="1" as="geometry">
            <mxPoint x="260" y="170" as="sourcePoint" />
          </mxGeometry>
        </mxCell>
        <mxCell id="JdHnlZ5F1qFr3cky5IYm-9" value="" style="edgeStyle=orthogonalEdgeStyle;rounded=0;orthogonalLoop=1;jettySize=auto;html=1;" edge="1" parent="WIyWlLk6GJQsqaUBKTNV-1" source="JdHnlZ5F1qFr3cky5IYm-6" target="JdHnlZ5F1qFr3cky5IYm-8">
          <mxGeometry relative="1" as="geometry" />
        </mxCell>
        <mxCell id="JdHnlZ5F1qFr3cky5IYm-14" value="" style="edgeStyle=orthogonalEdgeStyle;rounded=0;orthogonalLoop=1;jettySize=auto;html=1;" edge="1" parent="WIyWlLk6GJQsqaUBKTNV-1" source="JdHnlZ5F1qFr3cky5IYm-6" target="JdHnlZ5F1qFr3cky5IYm-13">
          <mxGeometry relative="1" as="geometry" />
        </mxCell>
        <mxCell id="JdHnlZ5F1qFr3cky5IYm-6" value="directories already created?" style="rhombus;whiteSpace=wrap;html=1;rounded=1;glass=0;strokeWidth=1;shadow=0;" vertex="1" parent="WIyWlLk6GJQsqaUBKTNV-1">
          <mxGeometry x="110" y="230" width="190" height="80" as="geometry" />
        </mxCell>
        <mxCell id="JdHnlZ5F1qFr3cky5IYm-8" value="PVCAlreadyInitialized error" style="whiteSpace=wrap;html=1;rounded=1;glass=0;strokeWidth=1;shadow=0;" vertex="1" parent="WIyWlLk6GJQsqaUBKTNV-1">
          <mxGeometry x="360" y="240" width="200" height="60" as="geometry" />
        </mxCell>
        <mxCell id="JdHnlZ5F1qFr3cky5IYm-12" value="Yes" style="text;html=1;align=center;verticalAlign=middle;resizable=0;points=[];autosize=1;strokeColor=none;fillColor=none;" vertex="1" parent="WIyWlLk6GJQsqaUBKTNV-1">
          <mxGeometry x="310" y="230" width="40" height="30" as="geometry" />
        </mxCell>
        <mxCell id="JdHnlZ5F1qFr3cky5IYm-17" value="" style="edgeStyle=orthogonalEdgeStyle;rounded=0;orthogonalLoop=1;jettySize=auto;html=1;" edge="1" parent="WIyWlLk6GJQsqaUBKTNV-1" source="JdHnlZ5F1qFr3cky5IYm-13" target="JdHnlZ5F1qFr3cky5IYm-16">
          <mxGeometry relative="1" as="geometry" />
        </mxCell>
        <mxCell id="JdHnlZ5F1qFr3cky5IYm-13" value="create directories" style="whiteSpace=wrap;html=1;rounded=1;glass=0;strokeWidth=1;shadow=0;" vertex="1" parent="WIyWlLk6GJQsqaUBKTNV-1">
          <mxGeometry x="145" y="400" width="120" height="40" as="geometry" />
        </mxCell>
        <mxCell id="JdHnlZ5F1qFr3cky5IYm-15" value="&lt;div&gt;No&lt;/div&gt;&lt;div&gt;&lt;br&gt;&lt;/div&gt;" style="text;html=1;align=center;verticalAlign=middle;resizable=0;points=[];autosize=1;strokeColor=none;fillColor=none;" vertex="1" parent="WIyWlLk6GJQsqaUBKTNV-1">
          <mxGeometry x="220" y="333" width="40" height="40" as="geometry" />
        </mxCell>
        <mxCell id="JdHnlZ5F1qFr3cky5IYm-16" value="Add files to status" style="whiteSpace=wrap;html=1;rounded=1;glass=0;strokeWidth=1;shadow=0;" vertex="1" parent="WIyWlLk6GJQsqaUBKTNV-1">
          <mxGeometry x="145" y="510" width="120" height="60" as="geometry" />
        </mxCell>
      </root>
    </mxGraphModel>
  </diagram>
</mxfile>
